<svg width="6" height="12" viewBox="0 0 6 12" fill="none" xmlns="http://www.w3.org/2000/svg">
<path d="M5.47748 10.3772L1.15467 5.98503C1.05986 5.88919 1.00668 5.75983 1.00668 5.62503C1.00668 5.49022 1.05986 5.36086 1.15467 5.26503L5.47654 0.872838C5.5713 0.776411 5.6244 0.646626 5.6244 0.511432C5.6244 0.376238 5.5713 0.246453 5.47654 0.150026C5.43025 0.102543 5.37492 0.0648062 5.31382 0.0390402C5.25272 0.0132742 5.18707 0 5.12076 0C5.05445 0 4.9888 0.0132742 4.9277 0.0390402C4.8666 0.0648062 4.81127 0.102543 4.76498 0.150026L0.443105 4.54128C0.159112 4.83051 0 5.21967 0 5.62503C0 6.03038 0.159112 6.41954 0.443105 6.70878L4.76498 11.1C4.81129 11.1477 4.86667 11.1855 4.92786 11.2114C4.98905 11.2372 5.0548 11.2505 5.12123 11.2505C5.18766 11.2505 5.25341 11.2372 5.3146 11.2114C5.37579 11.1855 5.43117 11.1477 5.47748 11.1C5.57224 11.0036 5.62534 10.8738 5.62534 10.7386C5.62534 10.6034 5.57224 10.4736 5.47748 10.3772Z" fill="black"/>
</svg>
