<svg width="10" height="19" viewBox="0 0 10 19" fill="none" xmlns="http://www.w3.org/2000/svg">
<path d="M9.12913 17.2954L1.92445 9.97504C1.76643 9.81532 1.6778 9.59972 1.6778 9.37504C1.6778 9.15037 1.76643 8.93476 1.92445 8.77504L9.12757 1.45473C9.2855 1.29402 9.374 1.07771 9.374 0.852387C9.374 0.627064 9.2855 0.410755 9.12757 0.250043C9.05042 0.170905 8.95821 0.10801 8.85637 0.065067C8.75453 0.0221237 8.64512 0 8.5346 0C8.42408 0 8.31467 0.0221237 8.21284 0.065067C8.111 0.10801 8.01879 0.170905 7.94163 0.250043L0.738508 7.56879C0.265186 8.05086 0 8.69945 0 9.37504C0 10.0506 0.265186 10.6992 0.738508 11.1813L7.94163 18.5C8.01881 18.5794 8.11112 18.6425 8.2131 18.6856C8.31508 18.7287 8.42467 18.7509 8.53538 18.7509C8.64609 18.7509 8.75568 18.7287 8.85766 18.6856C8.95965 18.6425 9.05196 18.5794 9.12913 18.5C9.28706 18.3393 9.37556 18.123 9.37556 17.8977C9.37556 17.6724 9.28706 17.4561 9.12913 17.2954Z" fill="white"/>
</svg>
