<svg xmlns="http://www.w3.org/2000/svg" xmlns:xlink="http://www.w3.org/1999/xlink" width="1080" zoomAndPan="magnify" viewBox="0 0 810 1020" height="1350" preserveAspectRatio="xMidYMid meet" version="1.0"><defs><clipPath id="a09c7ffbe0"><path d="M 0 130.703125 L 806 130.703125 L 806 641 L 0 641 Z M 0 130.703125 " clip-rule="nonzero"/></clipPath></defs><g clip-path="url(#a09c7ffbe0)"><path fill="#000000" d="M 781.265625 218.746094 C 775.78125 218.574219 770.273438 218.707031 764.789062 218.707031 C 577.34375 218.707031 389.878906 218.707031 202.433594 218.707031 C 195.265625 218.707031 188.09375 218.707031 180.488281 218.707031 C 174.140625 194.714844 168.042969 172.386719 162.363281 149.941406 C 159.726562 139.523438 154.714844 131.207031 143.148438 131.109375 C 101.628906 130.710938 60.105469 130.710938 18.601562 131.089844 C 7.285156 131.207031 0.230469 138.070312 0.078125 149.617188 C -0.078125 161.066406 6.480469 167.699219 17.949219 168.773438 C 23.398438 169.289062 28.925781 169.078125 34.429688 169.078125 C 64.902344 169.097656 95.355469 169.097656 126.882812 169.097656 C 128.851562 175.367188 130.285156 179.382812 131.355469 183.511719 C 168.136719 326.355469 204.898438 469.199219 241.585938 612.0625 C 248.582031 639.34375 250.285156 640.894531 279.054688 640.894531 C 406.664062 640.910156 534.289062 640.929688 661.898438 640.910156 C 684.171875 640.910156 693.175781 635.539062 693.671875 622.15625 C 694.1875 608.105469 684.6875 602.066406 661.441406 602.046875 C 552.757812 602.007812 444.074219 602.027344 335.375 602.027344 C 320.710938 602.027344 306.03125 602.65625 291.441406 601.625 C 286.472656 601.28125 278.710938 597.746094 277.507812 593.980469 C 271.980469 576.695312 268.332031 558.820312 263.246094 538.078125 C 279.800781 538.078125 294.292969 538.078125 308.800781 538.078125 C 432.699219 538.078125 556.582031 538.097656 680.480469 538.0625 C 704.109375 538.0625 706.746094 536.089844 714.433594 513.34375 C 724.984375 482.140625 735.441406 450.90625 745.957031 419.6875 C 765.035156 363.023438 784.289062 306.417969 803.175781 249.695312 C 809.867188 229.46875 802.488281 219.433594 781.265625 218.746094 Z M 732.824219 337.808594 C 716.285156 386.898438 699.40625 435.898438 683.347656 485.144531 C 679.925781 495.621094 674.859375 499.40625 663.808594 499.273438 C 589.445312 498.375 515.058594 497.855469 440.691406 497.703125 C 405.535156 497.628906 370.378906 498.753906 335.222656 499.0625 C 310.90625 499.273438 286.550781 499.425781 262.25 498.601562 C 258.199219 498.46875 251.757812 493.804688 250.78125 490.078125 C 230.476562 413.589844 210.824219 336.910156 190.582031 258.546875 C 380.28125 258.546875 568.339844 258.546875 759.320312 258.546875 C 750.125 286.054688 741.523438 311.960938 732.824219 337.808594 Z M 732.824219 337.808594 " fill-opacity="1" fill-rule="nonzero"/></g><path fill="#000000" d="M 599.269531 681.878906 C 544.328125 681.976562 499.230469 727.78125 500.050781 782.648438 C 500.855469 837.285156 545.453125 880.699219 600.207031 880.164062 C 655.113281 879.628906 698.699219 835.46875 698.277344 780.792969 C 697.859375 726.214844 653.390625 681.785156 599.269531 681.878906 Z M 598.449219 841.777344 C 565.28125 841.300781 538.535156 813.695312 539.011719 780.449219 C 539.492188 746.898438 566.445312 720.765625 600.148438 721.148438 C 633.664062 721.546875 660.0625 748.636719 659.625 782.148438 C 659.183594 815.300781 631.5 842.253906 598.449219 841.777344 Z M 598.449219 841.777344 " fill-opacity="1" fill-rule="nonzero"/><path fill="#000000" d="M 316.007812 681.9375 C 262.386719 680.199219 216.332031 724.242188 214.898438 778.652344 C 213.445312 833.519531 256.09375 878.691406 310.734375 880.125 C 366.480469 881.597656 411.921875 838.449219 413.011719 783.011719 C 414.0625 728.871094 370.703125 683.695312 316.007812 681.9375 Z M 312.835938 841.757812 C 279.667969 841.144531 252.921875 813.503906 253.417969 780.351562 C 253.933594 747.03125 281.082031 720.859375 314.804688 721.183594 C 348.203125 721.511719 374.527344 748.636719 374.105469 782.324219 C 373.722656 815.433594 345.945312 842.371094 312.835938 841.757812 Z M 312.835938 841.757812 " fill-opacity="1" fill-rule="nonzero"/></svg>