<svg xmlns="http://www.w3.org/2000/svg" xmlns:xlink="http://www.w3.org/1999/xlink" width="1080" zoomAndPan="magnify" viewBox="0 0 810 1020" height="1350" preserveAspectRatio="xMidYMid meet" version="1.0"><defs><clipPath id="62ed9ea028"><path d="M 23 142 L 784.945312 142 L 784.945312 859 L 23 859 Z M 23 142 " clip-rule="nonzero"/></clipPath></defs><g clip-path="url(#62ed9ea028)"><path fill="#000000" d="M 782.207031 254.109375 C 778.339844 221.195312 760.640625 210.800781 683.53125 195.832031 C 650.488281 189.492188 596.210938 178.78125 562.851562 172.046875 C 529.496094 165.390625 474.699219 155.367188 441.097656 149.84375 C 381.558594 140.007812 379.328125 139.953125 357.832031 148.320312 C 345.730469 153.007812 317.558594 163.792969 295.375 172.234375 C 273.117188 180.675781 223.898438 201.410156 185.984375 218.277344 C 148 235.21875 102.664062 255.058594 85.222656 262.421875 C 67.726562 269.789062 46.605469 281.445312 38.238281 288.421875 L 23.007812 301.101562 L 23.714844 384.1875 C 24.921875 524.214844 28.847656 684.601562 31.894531 713.722656 C 35.261719 746.265625 30.632812 743.476562 121.761719 767.6875 C 155.75 776.761719 217.839844 795.65625 259.695312 809.675781 C 301.550781 823.695312 351.828125 838.722656 371.5 843.035156 C 391.097656 847.40625 411.460938 852.742188 416.648438 854.957031 C 435.222656 862.878906 446.324219 859.140625 528.507812 817.671875 C 707.90625 727.109375 754.839844 701.484375 769.359375 686.199219 L 784.457031 670.46875 L 784.71875 473.746094 C 784.847656 365.554688 783.695312 266.738281 782.246094 254.128906 Z M 551.828125 204.199219 L 579.347656 210.542969 L 296.660156 352.371094 C 249.28125 343.351562 247.125 342.050781 259.675781 337.195312 C 267.539062 334.148438 277.75 329.460938 282.378906 326.800781 C 287.0625 324.140625 319.15625 309.304688 353.722656 293.886719 C 388.347656 278.414062 447.066406 251.972656 484.238281 235.03125 L 551.84375 204.21875 Z M 285.929688 384.820312 L 283.902344 411.765625 C 282.824219 426.546875 281.746094 442.464844 281.484375 447.023438 C 280.984375 456.859375 274.644531 456.914062 234.683594 447.46875 L 205.007812 440.421875 L 205.007812 368.625 L 222.820312 371.914062 C 232.582031 373.679688 250.84375 377.363281 263.28125 379.964844 L 285.929688 384.78125 Z M 105.136719 291.339844 C 114.269531 288.046875 161.832031 266.867188 210.789062 244.273438 C 259.75 221.699219 316.3125 197.730469 336.414062 190.996094 C 369.511719 179.839844 377.246094 179.003906 417.148438 181.996094 C 503.703125 188.46875 503.964844 186.8125 409.542969 232.484375 C 363.765625 254.6875 310.234375 279.734375 290.632812 288.289062 C 270.980469 296.789062 242.753906 310.046875 227.914062 317.707031 C 213.078125 325.386719 195.953125 331.46875 189.871094 331.28125 C 179.792969 330.96875 137.9375 317.464844 102.738281 303.128906 L 88.476562 297.289062 L 105.15625 291.320312 Z M 392.847656 815.066406 C 384.980469 811.703125 356.121094 803.019531 328.605469 795.859375 C 301.140625 788.699219 254.097656 773.730469 223.972656 762.554688 C 193.90625 751.453125 154.339844 738.640625 136.023438 734.140625 C 117.691406 729.640625 93.664062 723.613281 82.507812 720.824219 L 62.277344 715.75 L 62.277344 684.230469 C 62.222656 666.917969 60.828125 578.511719 59.171875 487.746094 L 56.125 322.671875 L 114.34375 342.644531 L 172.617188 362.617188 L 173.566406 411.320312 C 174.066406 438.152344 176.746094 462.308594 179.535156 465.042969 C 184.535156 470.042969 265.140625 492.433594 293.871094 496.820312 C 311.179688 499.480469 311.496094 498.589844 316.945312 430.359375 C 318.601562 410.128906 321.707031 393.523438 323.789062 393.523438 C 325.871094 393.523438 348.386719 397.835938 373.824219 403.042969 C 399.261719 408.304688 420.886719 412.566406 421.890625 412.566406 C 422.894531 412.566406 423.789062 504.59375 423.789062 617.097656 L 423.730469 617.097656 C 423.730469 844.261719 426.074219 829.425781 392.847656 815.085938 Z M 392.847656 371.691406 C 382.898438 369.441406 363.246094 365.386719 341.878906 361.128906 L 608.726562 216.621094 C 623.75 219.558594 641.042969 222.738281 656.027344 225.324219 C 712.535156 234.957031 712.910156 232.929688 647.34375 268.316406 C 625.089844 280.3125 570.234375 310.175781 525.515625 334.648438 L 525.460938 334.648438 C 480.761719 359.195312 438.960938 378.980469 432.75 378.664062 C 426.539062 378.347656 408.597656 375.242188 392.863281 371.691406 Z M 729.269531 670.523438 C 719.507812 676.996094 693.570312 692.46875 671.628906 704.890625 C 649.742188 717.253906 592.621094 747.324219 544.667969 771.664062 L 457.480469 815.867188 L 458.054688 614.515625 L 458.558594 413.214844 L 471.183594 403.898438 C 478.15625 398.765625 497.625 387.609375 514.433594 379.167969 C 531.300781 370.667969 582.542969 342.960938 628.324219 317.578125 C 697.011719 279.457031 741.839844 255.5625 744.371094 255.5625 C 744.628906 255.5625 745.316406 346.253906 745.949219 457.101562 L 747.027344 658.640625 L 729.269531 670.503906 Z M 729.269531 670.523438 " fill-opacity="1" fill-rule="nonzero"/></g><path fill="#000000" d="M 711.699219 585.542969 C 698.199219 580.335938 690.128906 592.960938 690.128906 619.21875 C 690.128906 632.847656 691.582031 645.53125 693.496094 647.371094 C 695.335938 649.214844 701.230469 650.105469 706.566406 649.34375 C 715.007812 648.136719 716.460938 644.023438 717.667969 618.195312 C 718.800781 594.671875 717.539062 587.808594 711.699219 585.542969 Z M 711.699219 585.542969 " fill-opacity="1" fill-rule="nonzero"/><path fill="#000000" d="M 659.191406 614.71875 C 651.585938 614.71875 648.796875 619.347656 645.242188 637.871094 C 641.375 657.839844 641.878906 661.914062 649.242188 667.289062 C 665.027344 678.835938 671.683594 670.652344 670.105469 641.421875 C 668.894531 618.34375 667.445312 614.71875 659.191406 614.71875 Z M 659.191406 614.71875 " fill-opacity="1" fill-rule="nonzero"/><path fill="#000000" d="M 335.652344 678.835938 C 307.109375 667.234375 295.375 668.683594 295.375 683.78125 C 295.375 691.148438 301.773438 696.652344 320.292969 705.09375 C 349.839844 718.480469 358.726562 719.429688 366.703125 709.855469 C 375.144531 699.644531 367.019531 691.59375 335.632812 678.835938 Z M 335.652344 678.835938 " fill-opacity="1" fill-rule="nonzero"/><path fill="#000000" d="M 320.292969 719.671875 C 287.640625 708.699219 283.066406 708.199219 276.59375 714.671875 C 265.253906 726.011719 275.386719 736.351562 309.953125 748.53125 C 344 760.582031 355.175781 762.035156 359.542969 754.929688 C 367.464844 742.191406 355.734375 731.59375 320.292969 719.671875 Z M 320.292969 719.671875 " fill-opacity="1" fill-rule="nonzero"/></svg>