<svg xmlns="http://www.w3.org/2000/svg" xmlns:xlink="http://www.w3.org/1999/xlink" width="1080" zoomAndPan="magnify" viewBox="0 0 810 1012.49997" height="1350" preserveAspectRatio="xMidYMid meet" version="1.0"><defs><clipPath id="614d8d8714"><path d="M 8.386719 108.667969 L 802.996094 108.667969 L 802.996094 903.273438 L 8.386719 903.273438 Z M 8.386719 108.667969 " clip-rule="nonzero"/></clipPath></defs><g clip-path="url(#614d8d8714)"><path fill="#000000" d="M 207.039062 108.667969 C 191.371094 108.667969 178.660156 121.378906 178.660156 137.046875 L 178.660156 165.425781 L 121.902344 165.425781 C 59.527344 165.425781 8.386719 216.566406 8.386719 278.941406 L 8.386719 789.757812 C 8.386719 852.132812 59.527344 903.273438 121.902344 903.273438 L 689.480469 903.273438 C 751.851562 903.273438 802.996094 852.132812 802.996094 789.757812 L 802.996094 278.941406 C 802.996094 216.566406 751.851562 165.425781 689.480469 165.425781 L 632.722656 165.425781 L 632.722656 137.046875 C 632.722656 121.378906 620.011719 108.667969 604.34375 108.667969 C 588.675781 108.667969 575.964844 121.378906 575.964844 137.046875 L 575.964844 165.425781 L 434.070312 165.425781 L 434.070312 137.046875 C 434.070312 121.378906 421.359375 108.667969 405.691406 108.667969 C 390.023438 108.667969 377.3125 121.378906 377.3125 137.046875 L 377.3125 165.425781 L 235.417969 165.425781 L 235.417969 137.046875 C 235.417969 121.378906 222.707031 108.667969 207.039062 108.667969 Z M 121.902344 222.183594 L 178.660156 222.183594 L 178.660156 250.5625 C 178.660156 266.230469 191.371094 278.941406 207.039062 278.941406 C 222.707031 278.941406 235.417969 266.230469 235.417969 250.5625 L 235.417969 222.183594 L 377.3125 222.183594 L 377.3125 250.5625 C 377.3125 266.230469 390.023438 278.941406 405.691406 278.941406 C 421.359375 278.941406 434.070312 266.230469 434.070312 250.5625 L 434.070312 222.183594 L 575.964844 222.183594 L 575.964844 250.5625 C 575.964844 266.230469 588.675781 278.941406 604.34375 278.941406 C 620.011719 278.941406 632.722656 266.230469 632.722656 250.5625 L 632.722656 222.183594 L 689.480469 222.183594 C 721.40625 222.183594 746.238281 247.015625 746.238281 278.941406 L 746.238281 335.699219 L 65.144531 335.699219 L 65.144531 278.941406 C 65.144531 247.015625 89.976562 222.183594 121.902344 222.183594 Z M 65.144531 392.457031 L 746.238281 392.457031 L 746.238281 789.757812 C 746.238281 821.683594 721.40625 846.515625 689.480469 846.515625 L 121.902344 846.515625 C 89.976562 846.515625 65.144531 821.683594 65.144531 789.757812 Z M 65.144531 392.457031 " fill-opacity="1" fill-rule="nonzero"/></g><path fill="#000000" d="M 164.617188 477.738281 L 221.226562 477.738281 C 229.0625 477.738281 235.417969 483.949219 235.417969 491.929688 L 235.417969 548.539062 C 235.417969 556.371094 229.0625 562.726562 221.226562 562.726562 L 164.617188 562.726562 C 156.636719 562.726562 150.429688 556.371094 150.429688 548.539062 L 150.429688 491.929688 C 150.429688 483.949219 156.636719 477.738281 164.617188 477.738281 Z M 164.617188 477.738281 " fill-opacity="1" fill-rule="nonzero"/><path fill="#000000" d="M 306.363281 477.738281 L 362.976562 477.738281 C 370.957031 477.738281 377.164062 483.949219 377.164062 491.929688 L 377.164062 548.539062 C 377.164062 556.371094 370.957031 562.726562 362.976562 562.726562 L 306.363281 562.726562 C 298.53125 562.726562 292.175781 556.371094 292.175781 548.539062 L 292.175781 491.929688 C 292.175781 483.949219 298.53125 477.738281 306.363281 477.738281 Z M 306.363281 477.738281 " fill-opacity="1" fill-rule="nonzero"/><path fill="#000000" d="M 448.40625 477.738281 L 505.015625 477.738281 C 512.851562 477.738281 519.207031 483.949219 519.207031 491.929688 L 519.207031 548.539062 C 519.207031 556.371094 512.851562 562.726562 505.015625 562.726562 L 448.40625 562.726562 C 440.425781 562.726562 434.21875 556.371094 434.21875 548.539062 L 434.21875 491.929688 C 434.21875 483.949219 440.425781 477.738281 448.40625 477.738281 Z M 448.40625 477.738281 " fill-opacity="1" fill-rule="nonzero"/><path fill="#000000" d="M 590.152344 477.738281 L 646.761719 477.738281 C 654.746094 477.738281 660.953125 483.949219 660.953125 491.929688 L 660.953125 548.539062 C 660.953125 556.371094 654.746094 562.726562 646.761719 562.726562 L 590.152344 562.726562 C 582.320312 562.726562 575.964844 556.371094 575.964844 548.539062 L 575.964844 491.929688 C 575.964844 483.949219 582.320312 477.738281 590.152344 477.738281 Z M 590.152344 477.738281 " fill-opacity="1" fill-rule="nonzero"/><path fill="#000000" d="M 164.617188 647.863281 L 221.226562 647.863281 C 229.0625 647.863281 235.417969 654.21875 235.417969 662.054688 L 235.417969 718.664062 C 235.417969 726.644531 229.0625 732.855469 221.226562 732.855469 L 164.617188 732.855469 C 156.636719 732.855469 150.429688 726.644531 150.429688 718.664062 L 150.429688 662.054688 C 150.429688 654.21875 156.636719 647.863281 164.617188 647.863281 Z M 164.617188 647.863281 " fill-opacity="1" fill-rule="nonzero"/><path fill="#000000" d="M 306.363281 647.863281 L 362.976562 647.863281 C 370.957031 647.863281 377.164062 654.21875 377.164062 662.054688 L 377.164062 718.664062 C 377.164062 726.644531 370.957031 732.855469 362.976562 732.855469 L 306.363281 732.855469 C 298.53125 732.855469 292.175781 726.644531 292.175781 718.664062 L 292.175781 662.054688 C 292.175781 654.21875 298.53125 647.863281 306.363281 647.863281 Z M 306.363281 647.863281 " fill-opacity="1" fill-rule="nonzero"/><path fill="#000000" d="M 448.40625 647.863281 L 505.015625 647.863281 C 512.851562 647.863281 519.207031 654.21875 519.207031 662.054688 L 519.207031 718.664062 C 519.207031 726.644531 512.851562 732.855469 505.015625 732.855469 L 448.40625 732.855469 C 440.425781 732.855469 434.21875 726.644531 434.21875 718.664062 L 434.21875 662.054688 C 434.21875 654.21875 440.425781 647.863281 448.40625 647.863281 Z M 448.40625 647.863281 " fill-opacity="1" fill-rule="nonzero"/><path fill="#000000" d="M 590.152344 647.863281 L 646.761719 647.863281 C 654.746094 647.863281 660.953125 654.21875 660.953125 662.054688 L 660.953125 718.664062 C 660.953125 726.644531 654.746094 732.855469 646.761719 732.855469 L 590.152344 732.855469 C 582.320312 732.855469 575.964844 726.644531 575.964844 718.664062 L 575.964844 662.054688 C 575.964844 654.21875 582.320312 647.863281 590.152344 647.863281 Z M 590.152344 647.863281 " fill-opacity="1" fill-rule="nonzero"/></svg>