<svg xmlns="http://www.w3.org/2000/svg" xmlns:xlink="http://www.w3.org/1999/xlink" width="1080" zoomAndPan="magnify" viewBox="0 0 810 1020" height="1350" preserveAspectRatio="xMidYMid meet" version="1.0"><path fill="#000000" d="M 797.375 837.703125 L 577.339844 617.582031 C 581.121094 612.53125 584.738281 607.367188 588.195312 602.09375 C 591.652344 596.816406 594.9375 591.4375 598.058594 585.957031 C 601.179688 580.472656 604.125 574.902344 606.898438 569.234375 C 609.671875 563.570312 612.261719 557.824219 614.675781 551.996094 C 617.089844 546.167969 619.316406 540.269531 621.363281 534.300781 C 623.40625 528.335938 625.261719 522.308594 626.929688 516.226562 C 628.597656 510.144531 630.074219 504.015625 631.359375 497.839844 C 632.644531 491.664062 633.734375 485.453125 634.632812 479.210938 C 635.53125 472.96875 636.230469 466.703125 636.734375 460.414062 C 637.242188 454.128906 637.550781 447.832031 637.660156 441.523438 C 637.773438 435.21875 637.6875 428.914062 637.40625 422.613281 C 637.125 416.3125 636.644531 410.023438 635.96875 403.753906 C 635.296875 397.484375 634.425781 391.238281 633.359375 385.019531 C 632.292969 378.804688 631.035156 372.625 629.585938 366.488281 C 628.132812 360.351562 626.492188 354.261719 624.660156 348.226562 C 622.828125 342.191406 620.8125 336.21875 618.605469 330.308594 C 616.402344 324.398438 614.015625 318.5625 611.445312 312.804688 C 608.875 307.042969 606.128906 301.367188 603.203125 295.78125 C 600.28125 290.191406 597.183594 284.699219 593.917969 279.304688 C 590.648438 273.910156 587.21875 268.621094 583.621094 263.441406 C 580.019531 258.257812 576.265625 253.195312 572.351562 248.25 C 568.4375 243.304688 564.371094 238.484375 560.15625 233.792969 C 555.941406 229.101562 551.582031 224.542969 547.082031 220.125 C 542.582031 215.703125 537.949219 211.429688 533.183594 207.300781 C 528.414062 203.167969 523.523438 199.191406 518.507812 195.367188 C 513.492188 191.542969 508.363281 187.878906 503.117188 184.375 C 497.871094 180.871094 492.523438 177.535156 487.070312 174.363281 C 481.617188 171.195312 476.070312 168.199219 470.429688 165.375 C 464.789062 162.550781 459.066406 159.90625 453.257812 157.441406 C 447.453125 154.976562 441.578125 152.695312 435.628906 150.597656 C 429.679688 148.5 423.671875 146.589844 417.605469 144.867188 C 411.535156 143.144531 405.421875 141.613281 399.257812 140.269531 C 393.09375 138.929688 386.894531 137.785156 380.660156 136.832031 C 374.421875 135.878906 368.164062 135.121094 361.882812 134.558594 C 355.601562 133.996094 349.304688 133.632812 343 133.464844 C 336.695312 133.292969 330.390625 133.324219 324.085938 133.546875 C 317.785156 133.773438 311.492188 134.195312 305.214844 134.8125 C 298.9375 135.433594 292.6875 136.246094 286.460938 137.253906 C 280.234375 138.265625 274.046875 139.46875 267.894531 140.863281 C 261.742188 142.257812 255.640625 143.84375 249.589844 145.621094 C 243.539062 147.398438 237.546875 149.363281 231.617188 151.515625 C 225.6875 153.667969 219.832031 156 214.050781 158.519531 C 208.265625 161.035156 202.566406 163.734375 196.953125 166.605469 C 191.335938 169.480469 185.816406 172.527344 180.394531 175.746094 C 174.96875 178.964844 169.648438 182.347656 164.4375 185.898438 C 159.222656 189.449219 154.125 193.160156 149.144531 197.03125 C 144.164062 200.898438 139.308594 204.921875 134.578125 209.09375 C 129.847656 213.265625 125.253906 217.582031 120.792969 222.042969 C 116.332031 226.503906 112.015625 231.097656 107.84375 235.828125 C 103.671875 240.558594 99.648438 245.414062 95.78125 250.394531 C 91.910156 255.375 88.199219 260.472656 84.648438 265.6875 C 81.097656 270.898438 77.714844 276.21875 74.496094 281.644531 C 71.277344 287.066406 68.230469 292.585938 65.355469 298.203125 C 62.484375 303.816406 59.785156 309.515625 57.269531 315.300781 C 54.75 321.082031 52.417969 326.9375 50.265625 332.867188 C 48.113281 338.796875 46.148438 344.789062 44.371094 350.839844 C 42.59375 356.890625 41.007812 362.992188 39.613281 369.144531 C 38.21875 375.296875 37.015625 381.484375 36.003906 387.710938 C 34.996094 393.9375 34.183594 400.1875 33.5625 406.464844 C 32.945312 412.742188 32.523438 419.035156 32.296875 425.335938 C 32.074219 431.640625 32.042969 437.945312 32.214844 444.25 C 32.382812 450.554688 32.746094 456.851562 33.308594 463.132812 C 33.871094 469.414062 34.628906 475.675781 35.582031 481.910156 C 36.535156 488.144531 37.679688 494.34375 39.019531 500.507812 C 40.363281 506.671875 41.894531 512.785156 43.617188 518.855469 C 45.339844 524.921875 47.25 530.929688 49.347656 536.878906 C 51.445312 542.828125 53.726562 548.703125 56.191406 554.507812 C 58.65625 560.316406 61.300781 566.039062 64.125 571.679688 C 66.949219 577.320312 69.945312 582.867188 73.113281 588.320312 C 76.285156 593.773438 79.621094 599.121094 83.125 604.367188 C 86.628906 609.613281 90.292969 614.742188 94.117188 619.757812 C 97.941406 624.773438 101.917969 629.664062 106.050781 634.433594 C 110.179688 639.199219 114.453125 643.832031 118.875 648.332031 C 123.292969 652.832031 127.851562 657.191406 132.542969 661.40625 C 137.234375 665.621094 142.054688 669.6875 147 673.601562 C 151.945312 677.515625 157.007812 681.273438 162.191406 684.871094 C 167.371094 688.46875 172.660156 691.898438 178.054688 695.167969 C 183.449219 698.433594 188.941406 701.53125 194.53125 704.453125 C 200.117188 707.378906 205.792969 710.125 211.554688 712.695312 C 217.316406 715.265625 223.148438 717.652344 229.058594 719.855469 C 234.96875 722.0625 240.941406 724.078125 246.976562 725.910156 C 253.011719 727.742188 259.101562 729.382812 265.238281 730.835938 C 271.375 732.285156 277.554688 733.546875 283.773438 734.609375 C 289.988281 735.675781 296.234375 736.546875 302.503906 737.21875 C 308.773438 737.894531 315.0625 738.375 321.363281 738.65625 C 327.664062 738.9375 333.96875 739.023438 340.273438 738.910156 C 346.582031 738.800781 352.878906 738.492188 359.164062 737.984375 C 365.453125 737.480469 371.71875 736.78125 377.960938 735.882812 C 384.203125 734.984375 390.414062 733.894531 396.589844 732.609375 C 402.765625 731.324219 408.894531 729.847656 414.976562 728.179688 C 421.058594 726.511719 427.085938 724.65625 433.050781 722.613281 C 439.019531 720.566406 444.917969 718.339844 450.746094 715.925781 C 456.574219 713.511719 462.320312 710.921875 467.984375 708.148438 C 473.652344 705.375 479.222656 702.429688 484.707031 699.308594 C 490.1875 696.1875 495.566406 692.902344 500.84375 689.445312 C 506.117188 685.988281 511.28125 682.371094 516.332031 678.589844 L 736.453125 898.710938 C 737.457031 899.679688 738.507812 900.601562 739.597656 901.46875 C 740.691406 902.335938 741.824219 903.148438 742.996094 903.90625 C 744.167969 904.664062 745.375 905.363281 746.613281 906.003906 C 747.855469 906.640625 749.121094 907.222656 750.417969 907.738281 C 751.714844 908.253906 753.03125 908.707031 754.371094 909.097656 C 755.710938 909.488281 757.066406 909.808594 758.4375 910.066406 C 759.8125 910.324219 761.191406 910.515625 762.582031 910.636719 C 763.972656 910.761719 765.363281 910.816406 766.757812 910.804688 C 768.15625 910.792969 769.546875 910.710938 770.933594 910.566406 C 772.320312 910.417969 773.699219 910.203125 775.066406 909.921875 C 776.433594 909.640625 777.78125 909.292969 779.117188 908.882812 C 780.449219 908.46875 781.757812 907.992188 783.046875 907.453125 C 784.332031 906.914062 785.589844 906.3125 786.820312 905.652344 C 788.046875 904.992188 789.242188 904.269531 790.398438 903.492188 C 791.558594 902.714844 792.675781 901.882812 793.753906 900.996094 C 794.832031 900.109375 795.863281 899.171875 796.851562 898.1875 C 797.835938 897.199219 798.773438 896.167969 799.660156 895.089844 C 800.546875 894.011719 801.378906 892.894531 802.15625 891.734375 C 802.933594 890.578125 803.65625 889.382812 804.316406 888.15625 C 804.976562 886.925781 805.578125 885.667969 806.117188 884.382812 C 806.65625 883.09375 807.132812 881.785156 807.546875 880.453125 C 807.957031 879.117188 808.304688 877.769531 808.585938 876.402344 C 808.867188 875.035156 809.082031 873.65625 809.230469 872.269531 C 809.375 870.882812 809.457031 869.492188 809.46875 868.097656 C 809.480469 866.699219 809.425781 865.308594 809.300781 863.917969 C 809.179688 862.527344 808.988281 861.148438 808.730469 859.777344 C 808.472656 858.402344 808.152344 857.046875 807.761719 855.707031 C 807.371094 854.367188 806.917969 853.050781 806.402344 851.753906 C 805.886719 850.457031 805.304688 849.191406 804.664062 847.949219 C 804.027344 846.710938 803.328125 845.503906 802.570312 844.332031 C 801.8125 843.160156 801 842.027344 800.132812 840.933594 C 799.265625 839.84375 798.34375 838.792969 797.375 837.789062 Z M 120.636719 437.3125 C 120.636719 433.789062 120.726562 430.265625 120.898438 426.742188 C 121.070312 423.222656 121.328125 419.707031 121.675781 416.199219 C 122.019531 412.691406 122.453125 409.191406 122.96875 405.703125 C 123.488281 402.21875 124.089844 398.746094 124.777344 395.285156 C 125.464844 391.828125 126.238281 388.390625 127.09375 384.96875 C 127.949219 381.550781 128.890625 378.152344 129.914062 374.777344 C 130.9375 371.40625 132.042969 368.058594 133.230469 364.738281 C 134.417969 361.417969 135.6875 358.132812 137.035156 354.875 C 138.386719 351.617188 139.8125 348.394531 141.320312 345.207031 C 142.828125 342.019531 144.414062 338.871094 146.074219 335.761719 C 147.738281 332.652344 149.476562 329.585938 151.289062 326.5625 C 153.101562 323.539062 154.984375 320.5625 156.945312 317.628906 C 158.902344 314.699219 160.933594 311.816406 163.03125 308.984375 C 165.132812 306.152344 167.300781 303.375 169.539062 300.648438 C 171.773438 297.925781 174.078125 295.253906 176.445312 292.644531 C 178.8125 290.03125 181.242188 287.476562 183.734375 284.984375 C 186.226562 282.492188 188.78125 280.0625 191.394531 277.695312 C 194.003906 275.328125 196.675781 273.023438 199.398438 270.789062 C 202.125 268.550781 204.902344 266.382812 207.734375 264.28125 C 210.566406 262.183594 213.449219 260.152344 216.378906 258.195312 C 219.3125 256.234375 222.289062 254.351562 225.3125 252.539062 C 228.335938 250.726562 231.402344 248.988281 234.511719 247.324219 C 237.621094 245.664062 240.769531 244.078125 243.957031 242.570312 C 247.144531 241.0625 250.367188 239.636719 253.625 238.285156 C 256.882812 236.9375 260.167969 235.667969 263.488281 234.480469 C 266.808594 233.292969 270.15625 232.1875 273.527344 231.164062 C 276.902344 230.140625 280.300781 229.199219 283.71875 228.34375 C 287.140625 227.488281 290.578125 226.714844 294.035156 226.027344 C 297.496094 225.339844 300.96875 224.738281 304.453125 224.21875 C 307.941406 223.703125 311.441406 223.269531 314.949219 222.925781 C 318.457031 222.578125 321.972656 222.320312 325.492188 222.148438 C 329.015625 221.976562 332.539062 221.886719 336.0625 221.886719 C 339.589844 221.886719 343.113281 221.976562 346.632812 222.148438 C 350.15625 222.320312 353.671875 222.578125 357.179688 222.925781 C 360.6875 223.269531 364.1875 223.703125 367.671875 224.21875 C 371.160156 224.738281 374.632812 225.339844 378.089844 226.027344 C 381.550781 226.714844 384.988281 227.488281 388.40625 228.34375 C 391.828125 229.199219 395.226562 230.140625 398.597656 231.164062 C 401.972656 232.1875 405.320312 233.292969 408.636719 234.480469 C 411.957031 235.667969 415.246094 236.9375 418.503906 238.285156 C 421.761719 239.636719 424.984375 241.0625 428.171875 242.570312 C 431.355469 244.078125 434.503906 245.664062 437.613281 247.324219 C 440.722656 248.988281 443.789062 250.726562 446.816406 252.539062 C 449.839844 254.351562 452.816406 256.234375 455.746094 258.195312 C 458.679688 260.152344 461.5625 262.183594 464.394531 264.28125 C 467.222656 266.382812 470.003906 268.550781 472.726562 270.789062 C 475.453125 273.023438 478.121094 275.328125 480.734375 277.695312 C 483.347656 280.0625 485.898438 282.492188 488.394531 284.984375 C 490.886719 287.476562 493.316406 290.03125 495.683594 292.644531 C 498.050781 295.253906 500.351562 297.925781 502.589844 300.648438 C 504.828125 303.375 506.996094 306.152344 509.09375 308.984375 C 511.195312 311.816406 513.226562 314.699219 515.183594 317.628906 C 517.140625 320.5625 519.027344 323.539062 520.839844 326.5625 C 522.652344 329.585938 524.390625 332.652344 526.050781 335.761719 C 527.714844 338.871094 529.296875 342.019531 530.804688 345.207031 C 532.3125 348.394531 533.742188 351.617188 535.089844 354.875 C 536.441406 358.132812 537.707031 361.417969 538.894531 364.738281 C 540.085938 368.058594 541.191406 371.40625 542.214844 374.777344 C 543.238281 378.152344 544.175781 381.550781 545.035156 384.96875 C 545.890625 388.390625 546.664062 391.828125 547.351562 395.285156 C 548.039062 398.746094 548.640625 402.21875 549.15625 405.703125 C 549.675781 409.191406 550.105469 412.691406 550.453125 416.199219 C 550.796875 419.707031 551.058594 423.222656 551.230469 426.742188 C 551.402344 430.265625 551.488281 433.789062 551.488281 437.3125 C 551.488281 440.839844 551.402344 444.363281 551.230469 447.882812 C 551.058594 451.40625 550.796875 454.921875 550.453125 458.429688 C 550.105469 461.9375 549.675781 465.4375 549.15625 468.921875 C 548.640625 472.410156 548.039062 475.882812 547.351562 479.339844 C 546.664062 482.800781 545.890625 486.238281 545.035156 489.65625 C 544.175781 493.078125 543.238281 496.476562 542.214844 499.847656 C 541.191406 503.222656 540.085938 506.570312 538.894531 509.886719 C 537.707031 513.207031 536.441406 516.496094 535.089844 519.753906 C 533.742188 523.011719 532.3125 526.234375 530.804688 529.421875 C 529.296875 532.605469 527.714844 535.753906 526.050781 538.863281 C 524.390625 541.972656 522.652344 545.039062 520.839844 548.066406 C 519.027344 551.089844 517.140625 554.066406 515.183594 556.996094 C 513.226562 559.929688 511.195312 562.8125 509.09375 565.644531 C 506.996094 568.472656 504.828125 571.253906 502.589844 573.976562 C 500.351562 576.703125 498.050781 579.371094 495.683594 581.984375 C 493.316406 584.597656 490.886719 587.148438 488.394531 589.644531 C 485.898438 592.136719 483.347656 594.566406 480.734375 596.933594 C 478.121094 599.300781 475.453125 601.601562 472.726562 603.839844 C 470.003906 606.078125 467.222656 608.246094 464.390625 610.34375 C 461.5625 612.445312 458.679688 614.476562 455.746094 616.433594 C 452.816406 618.390625 449.839844 620.277344 446.816406 622.089844 C 443.789062 623.902344 440.722656 625.640625 437.613281 627.300781 C 434.503906 628.964844 431.355469 630.546875 428.171875 632.054688 C 424.984375 633.5625 421.761719 634.992188 418.503906 636.339844 C 415.246094 637.691406 411.957031 638.957031 408.636719 640.144531 C 405.320312 641.335938 401.972656 642.441406 398.597656 643.464844 C 395.226562 644.488281 391.828125 645.425781 388.40625 646.285156 C 384.988281 647.140625 381.550781 647.914062 378.089844 648.601562 C 374.632812 649.289062 371.160156 649.890625 367.671875 650.40625 C 364.1875 650.925781 360.6875 651.355469 357.179688 651.703125 C 353.671875 652.046875 350.15625 652.308594 346.632812 652.480469 C 343.113281 652.652344 339.589844 652.738281 336.0625 652.738281 C 332.539062 652.734375 329.015625 652.644531 325.496094 652.46875 C 321.976562 652.289062 318.464844 652.027344 314.957031 651.679688 C 311.449219 651.328125 307.953125 650.894531 304.46875 650.375 C 300.980469 649.855469 297.511719 649.25 294.054688 648.558594 C 290.597656 647.867188 287.160156 647.09375 283.742188 646.234375 C 280.324219 645.375 276.929688 644.429688 273.558594 643.40625 C 270.1875 642.378906 266.839844 641.273438 263.523438 640.082031 C 260.207031 638.894531 256.917969 637.621094 253.664062 636.273438 C 250.410156 634.921875 247.1875 633.492188 244.003906 631.984375 C 240.816406 630.476562 237.671875 628.890625 234.5625 627.226562 C 231.457031 625.5625 228.390625 623.824219 225.371094 622.011719 C 222.347656 620.199219 219.371094 618.3125 216.441406 616.355469 C 213.511719 614.394531 210.628906 612.367188 207.800781 610.265625 C 204.96875 608.164062 202.191406 605.996094 199.46875 603.761719 C 196.746094 601.523438 194.078125 599.222656 191.464844 596.855469 C 188.855469 594.488281 186.300781 592.058594 183.808594 589.566406 C 181.320312 587.074219 178.890625 584.523438 176.523438 581.910156 C 174.15625 579.300781 171.851562 576.632812 169.617188 573.910156 C 167.378906 571.183594 165.210938 568.40625 163.113281 565.578125 C 161.011719 562.746094 158.980469 559.867188 157.023438 556.9375 C 155.0625 554.007812 153.179688 551.03125 151.367188 548.007812 C 149.550781 544.984375 147.8125 541.921875 146.152344 538.8125 C 144.488281 535.707031 142.902344 532.558594 141.394531 529.375 C 139.886719 526.1875 138.457031 522.96875 137.105469 519.714844 C 135.753906 516.457031 134.484375 513.171875 133.296875 509.855469 C 132.105469 506.535156 130.996094 503.191406 129.972656 499.820312 C 128.945312 496.449219 128.003906 493.054688 127.144531 489.632812 C 126.285156 486.214844 125.511719 482.78125 124.820312 479.324219 C 124.128906 475.867188 123.523438 472.394531 123.003906 468.910156 C 122.484375 465.425781 122.046875 461.929688 121.699219 458.421875 C 121.351562 454.914062 121.085938 451.402344 120.910156 447.878906 C 120.734375 444.359375 120.640625 440.839844 120.636719 437.3125 Z M 120.636719 437.3125 " fill-opacity="1" fill-rule="nonzero"/></svg>